<svg width="22" height="28" viewBox="0 0 22 28" fill="none" xmlns="http://www.w3.org/2000/svg">
<g clip-path="url(#clip0_523_128)">
<path d="M7.28516 4.92108C8.57957 4.92108 9.62891 3.87175 9.62891 2.57733C9.62891 1.28291 8.57957 0.233582 7.28516 0.233582C5.99074 0.233582 4.94141 1.28291 4.94141 2.57733C4.94141 3.87175 5.99074 4.92108 7.28516 4.92108Z" fill="white"/>
<path d="M7.28516 6.09296C5.60469 6.09296 4.23828 4.72655 4.23828 3.04608C4.23828 1.36561 5.60469 -0.000793457 7.28516 -0.000793457C8.96563 -0.000793457 10.332 1.36561 10.332 3.04608C10.332 4.72655 8.96563 6.09296 7.28516 6.09296ZM7.28516 1.40546C6.38047 1.40546 5.64453 2.14139 5.64453 3.04608C5.64453 3.95077 6.38047 4.68671 7.28516 4.68671C8.18984 4.68671 8.92578 3.95077 8.92578 3.04608C8.92578 2.14139 8.18984 1.40546 7.28516 1.40546Z" fill="black"/>
<path d="M20.6397 24.6391C19.4772 23.432 17.5178 21.1281 17.0819 19.9516C16.9061 19.4781 16.7608 17.5703 16.735 16.0891C16.7327 16.0047 16.7256 15.9203 16.7092 15.8383C16.6788 15.6836 16.0741 12.7234 14.5084 9.85L15.5444 10.1617L17.867 13.4523C18.3405 14.125 19.2967 14.2539 19.9366 13.7055C20.4944 13.2273 20.5553 12.3813 20.1311 11.7836L18.828 9.93672C17.8272 8.51875 16.3788 7.47813 14.717 6.97891C13.2967 6.55235 11.7803 6.49141 10.3506 6.88282C8.14985 7.4875 6.36861 8.99922 5.41001 11.0313L5.31626 11.2328L2.72407 10.0797C2.02095 9.76797 1.16548 10.0375 0.832668 10.7313C0.488136 11.4484 0.804543 12.3063 1.52876 12.6273L5.43345 14.3617C5.61861 14.4438 5.81314 14.4836 6.00298 14.4836C6.53032 14.4836 7.03657 14.1836 7.27564 13.675L7.95532 12.2289C8.14282 11.8328 8.38189 11.4672 8.66079 11.1414C9.68501 12.7 10.5194 14.4859 10.9905 15.5828C9.25376 16.8531 8.19204 18.2313 8.13814 18.2992C7.89204 18.6227 7.79595 19.0375 7.87798 19.4336C7.90376 19.5602 8.52017 22.5508 9.6522 26.0875C9.84204 26.6852 10.3952 27.0648 10.9905 27.0648C11.1874 27.0648 11.3889 27.0227 11.5811 26.9336C12.235 26.6336 12.5303 25.8578 12.3124 25.1711C11.5459 22.7617 11.0186 20.5844 10.7795 19.532C11.2834 18.9813 12.228 18.0531 13.4514 17.3195C13.66 17.1953 13.8264 17.0219 13.9413 16.8227C13.9811 18.0016 14.1006 20.0031 14.4452 20.9336C15.235 23.0617 18.31 26.2773 18.6569 26.6359C19.2077 27.2055 20.1264 27.2102 20.6819 26.6313C21.2116 26.0781 21.1717 25.1898 20.6397 24.6391Z" fill="white"/>
<path d="M20.6397 24.6391C19.4772 23.432 17.5178 21.1281 17.0819 19.9516C16.9061 19.4781 16.7608 17.5703 16.735 16.0891C16.7327 16.0047 16.7256 15.9203 16.7092 15.8383C16.6788 15.6836 16.0741 12.7234 14.5084 9.85L15.5444 10.1617L17.867 13.4523C18.3405 14.125 19.2967 14.2539 19.9366 13.7055C20.4944 13.2273 20.5553 12.3813 20.1311 11.7836L18.828 9.93672C17.8272 8.51875 16.3788 7.47813 14.717 6.97891C13.2967 6.55235 11.7803 6.49141 10.3506 6.88282C8.14985 7.4875 6.36861 8.99922 5.41001 11.0313L5.31626 11.2328L2.72407 10.0797C2.02095 9.76797 1.16548 10.0375 0.832668 10.7313C0.488136 11.4484 0.804543 12.3063 1.52876 12.6273L5.43345 14.3617C5.61861 14.4438 5.81314 14.4836 6.00298 14.4836C6.53032 14.4836 7.03657 14.1836 7.27564 13.675L7.95532 12.2289C8.14282 11.8328 8.38189 11.4672 8.66079 11.1414C9.68501 12.7 10.5194 14.4859 10.9905 15.5828C9.25376 16.8531 8.19204 18.2313 8.13814 18.2992C7.89204 18.6227 7.79595 19.0375 7.87798 19.4336C7.90376 19.5602 8.52017 22.5508 9.6522 26.0875C9.84204 26.6852 10.3952 27.0648 10.9905 27.0648C11.1874 27.0648 11.3889 27.0227 11.5811 26.9336C12.235 26.6336 12.5303 25.8578 12.3124 25.1711C11.5459 22.7617 11.0186 20.5844 10.7795 19.532C11.2834 18.9813 12.228 18.0531 13.4514 17.3195C13.66 17.1953 13.8264 17.0219 13.9413 16.8227C13.9811 18.0016 14.1006 20.0031 14.4452 20.9336C15.235 23.0617 18.31 26.2773 18.6569 26.6359C19.2077 27.2055 20.1264 27.2102 20.6819 26.6313C21.2116 26.0781 21.1717 25.1898 20.6397 24.6391Z" fill="white"/>
<path d="M10.9907 27.7656C10.0696 27.7656 9.26336 27.175 8.98211 26.2984C7.8407 22.7289 7.21492 19.6984 7.18914 19.5719C7.06726 18.9742 7.20789 18.3531 7.5782 17.868C7.62039 17.8117 8.56726 16.5836 10.1212 15.3555C9.77195 14.575 9.25164 13.4945 8.63289 12.4352C8.61883 12.4656 8.60242 12.4961 8.58836 12.5266L7.90867 13.9727C7.5618 14.7086 6.81414 15.1844 5.99851 15.1844C5.7032 15.1844 5.41492 15.1234 5.14305 15.0016L1.23836 13.2672C0.713358 13.0328 0.312577 12.6063 0.115702 12.0672C-0.0835169 11.5281 -0.0553919 10.9445 0.195389 10.4242C0.685233 9.40704 1.94617 8.96407 3.00555 9.43517L4.98133 10.3141C5.91414 8.58439 7.41414 7.24376 9.25164 6.50782C11.0071 5.8047 12.9712 5.71798 14.7829 6.26173C16.679 6.84532 18.3524 8.0547 19.4962 9.66954L20.7384 11.4227C21.0641 11.8844 21.1907 12.4422 21.0946 12.9977C20.9985 13.5531 20.6915 14.0383 20.2321 14.3617C19.8102 14.6594 19.297 14.7906 18.786 14.7344C18.3993 14.6922 18.1204 14.3453 18.1626 13.9586C18.2048 13.5719 18.554 13.2953 18.9384 13.3352C19.1095 13.3539 19.2805 13.3094 19.4212 13.2109C19.5735 13.1031 19.6766 12.9414 19.7095 12.7563C19.7423 12.5711 19.7001 12.3859 19.5899 12.2313L18.3501 10.4781C17.3845 9.12111 15.9735 8.09923 14.3774 7.60939C12.8751 7.15939 11.2391 7.23204 9.77664 7.81564C8.12898 8.47423 6.80476 9.72345 6.04773 11.3289L5.95164 11.5305C5.78758 11.8774 5.37976 12.0274 5.03055 11.8727L2.43836 10.7195C2.0657 10.5531 1.62742 10.6938 1.4657 11.0336C1.38133 11.207 1.37195 11.4016 1.43992 11.582C1.50555 11.7625 1.63914 11.9055 1.81492 11.9828L5.71961 13.7172C6.0618 13.8695 6.48367 13.7078 6.6407 13.375L7.32039 11.9289C7.52898 11.4859 7.80086 11.0664 8.12664 10.6844C8.26961 10.5156 8.48523 10.4266 8.70555 10.4383C8.92586 10.4524 9.12742 10.5695 9.2493 10.7547C10.2805 12.3227 11.1173 14.0945 11.6376 15.3039C11.7665 15.6063 11.6704 15.9555 11.4055 16.15C9.74617 17.3617 8.7407 18.6695 8.69851 18.7234C8.5743 18.8852 8.52742 19.0914 8.56961 19.2906C8.59539 19.4149 9.20476 22.3727 10.3251 25.8719C10.4188 26.1649 10.6884 26.3617 10.9954 26.3617C11.0962 26.3617 11.197 26.3383 11.293 26.2961C11.6071 26.1508 11.7618 25.7524 11.647 25.3867C10.8759 22.9633 10.3462 20.7766 10.0977 19.6891C10.0462 19.4641 10.1095 19.2297 10.2641 19.0586C10.8618 18.407 11.8368 17.4719 13.0907 16.7172C13.4235 16.518 13.8548 16.6258 14.0563 16.9586C14.2532 17.2891 14.1454 17.7203 13.8126 17.9219C12.8352 18.5078 12.0384 19.2391 11.5509 19.7406C11.818 20.8891 12.3055 22.8297 12.9852 24.9578C13.318 26.0055 12.8423 27.1305 11.879 27.5711C11.593 27.7 11.2954 27.7656 10.9907 27.7656Z" fill="black"/>
<path d="M19.6673 27.7656C19.1165 27.7656 18.5634 27.55 18.1509 27.1234C17.5673 26.5188 14.6095 23.3945 13.7845 21.1773C13.679 20.8938 13.5899 20.5352 13.5149 20.0805C13.4516 19.6984 13.7095 19.3352 14.0915 19.2695C14.4735 19.2063 14.8368 19.4641 14.9024 19.8461C14.9774 20.2961 15.0548 20.5516 15.104 20.6875C15.7063 22.3094 17.9376 24.8805 19.161 26.1461C19.4305 26.425 19.8759 26.432 20.1548 26.1625C20.4337 25.893 20.4407 25.4477 20.1712 25.1688C19.311 24.2781 16.9602 21.6508 16.4212 20.1977C16.1751 19.5391 16.0509 17.3359 16.0321 16.1008C16.0321 16.0586 16.0274 16.0164 16.018 15.9742C15.9946 15.8523 15.4087 12.9742 13.8899 10.1875C13.7048 9.84766 13.829 9.41875 14.1712 9.2336C14.511 9.04844 14.9399 9.17266 15.1251 9.51485C16.7446 12.4891 17.3704 15.5711 17.3962 15.7023C17.4196 15.8266 17.4337 15.9531 17.436 16.0797C17.4641 17.7133 17.6235 19.4031 17.7384 19.7102C18.0805 20.6336 19.7938 22.757 21.1813 24.1938C21.9899 25.0305 21.9665 26.3664 21.1321 27.175C20.7266 27.5688 20.197 27.7656 19.6673 27.7656Z" fill="black"/>
</g>
<defs>
<clipPath id="clip0_523_128">
<rect width="22" height="28" fill="white"/>
</clipPath>
</defs>
</svg>
